<svg id="Layer_1" data-name="Layer 1" xmlns="http://www.w3.org/2000/svg" viewBox="0 0 184.82 184.82"><defs><style>.cls-1{fill:#970050;}.cls-2{fill:#f2f2f2;}</style></defs><circle class="cls-1" cx="92.41" cy="92.41" r="92.41"/><path class="cls-2" d="M120.72,56.07a5.49,5.49,0,0,0,0,7.77l12.69,12.68a5.49,5.49,0,0,0,9.37-3.88,5.5,5.5,0,0,0-1.61-3.88L128.48,56.07A5.5,5.5,0,0,0,120.72,56.07Zm18,15.16a2,2,0,0,1,.58,1.41,1.94,1.94,0,0,1-.58,1.41,2,2,0,0,1-1.41.59,2,2,0,0,1-1.41-.59L123.19,61.37a2,2,0,0,1,0-2.83,2,2,0,0,1,2.82,0Z" transform="translate(-2.33 -2.48)"/><path class="cls-2" d="M153.92,88.23a10.51,10.51,0,0,0-6.67-7.73c8.26-13.79,9.41-26.7,2.8-33.31-2.9-2.9-7.1-4.38-12.15-4.29a1.75,1.75,0,0,0,0,3.5h0c4.14-.08,7.38,1,9.62,3.26,3.47,3.47,3.56,8.75,3,12.56-.75,5.39-3.19,11.47-7.06,17.63q-15.11-.28-30.32-.39c-.07-5.95-.43-12-1.1-17.93A1.75,1.75,0,0,0,110.58,60L109,59.83c7.37-6.23,15.25-10.62,22.51-12.5a1.75,1.75,0,0,0-.88-3.38,48.64,48.64,0,0,0-8.52,3.14c.56-2.44.83-5.37-.24-7.55A4.83,4.83,0,0,0,118.8,37c-2-.57-5.21-.27-8.73,4.35l-.49.68-.06-.2c-.69-2.3-2.5-6.17-6.84-6.17a4.92,4.92,0,0,0-3.81,1.74,11,11,0,0,0-2,6.09c-1.52-2-3.38-3.62-5.38-3.62a4.08,4.08,0,0,0-3.34,1.86c-2.25,3.17-2.28,10-.19,17.24l-1.57,0A40.77,40.77,0,0,0,77,51.11V47.28a1.74,1.74,0,0,0,1.45-1.71V40.63a4.82,4.82,0,0,0-4.82-4.81H62.75a4.82,4.82,0,0,0-4.82,4.81v4.94a1.73,1.73,0,0,0,1.44,1.71v3.83C57,52.54,50.72,56.76,47.19,62.89a7.38,7.38,0,0,0-1,4.16,113,113,0,0,0,1.5,12.77l-2.15,0a10.5,10.5,0,0,0-10,8.37,21.16,21.16,0,0,0,0,8.39A10.47,10.47,0,0,0,42,104.27c.2,3.56.52,8.62,1.06,14.36-1.44,4.08-2.85,8.17-4.22,12.24a7.52,7.52,0,0,0,3.67,9.07,19.13,19.13,0,0,0,3.9,1.46,19.14,19.14,0,0,0,18,12.77H125a19.16,19.16,0,0,0,18-12.78,19.38,19.38,0,0,0,3.89-1.45,7.52,7.52,0,0,0,3.67-9.07q-2.06-6.12-4.22-12.24c.54-5.75.87-10.8,1.06-14.36a10.49,10.49,0,0,0,6.45-7.65,20.8,20.8,0,0,0,0-8.39ZM108.81,63.32c.56,5.36.87,10.77.93,16.12q-19.44-.12-38.87.06c.06-5.37.37-10.8.93-16.18a186.06,186.06,0,0,1,37,0ZM91,43.7c.13-.18.32-.39.49-.39,1.26,0,3.9,3.59,5.77,7.85a1.74,1.74,0,0,0,3.36-.66,1.66,1.66,0,0,0,0-.32c-.87-5.9.1-9.54,1-10.55a1.39,1.39,0,0,1,1.16-.52c4,0,4.16,8,4.16,8.09a1.74,1.74,0,0,0,3.34.7c1.25-2.82,4.77-8.39,7.68-7.59a1.34,1.34,0,0,1,.89.77c.74,1.51.35,4.86-1,8.28a78,78,0,0,0-13.6,10.06c-4.2-.31-8.42-.48-12.63-.51C89.13,51.29,89.7,45.48,91,43.7ZM73.49,50.37H62.87V47.31H73.49v3.06ZM62.75,39.31H73.61a1.33,1.33,0,0,1,1.33,1.32v3.19H61.42V40.63A1.33,1.33,0,0,1,62.75,39.31ZM51.17,79.23a111,111,0,0,1-1.46-12.4,3.93,3.93,0,0,1,.51-2.19C53.55,58.85,60,54.8,61.59,53.86H74.77a39.84,39.84,0,0,1,6.92,5.24Q75.84,59.37,70,60a1.75,1.75,0,0,0-1.55,1.54,178.35,178.35,0,0,0-1.1,18q-8.05.08-16.07.22c-.05-.17-.1-.35-.14-.53ZM45.54,105h.1L48,105c-.7,1.88-1.39,3.77-2.08,5.65C45.75,108.55,45.63,106.64,45.54,105ZM125,150.67H64.45a15.76,15.76,0,0,1-14.26-9.22,7.54,7.54,0,0,0,5.2-4.55c1-2.57,1.92-4.93,2.79-7.23a1.74,1.74,0,0,0-3.26-1.24c-.87,2.28-1.78,4.64-2.78,7.19a4,4,0,0,1-4.6,2.46,15.36,15.36,0,0,1-3.45-1.26A4,4,0,0,1,42.15,132c4.48-13.33,9.36-26.75,14.52-39.89a4,4,0,0,1,4.59-2.46,16.28,16.28,0,0,1,3.46,1.26,4,4,0,0,1,1.93,4.84c-2.93,8.72-6.05,17.52-9.27,26.17a1.75,1.75,0,0,0,3.27,1.22c2.2-5.89,4.35-11.86,6.42-17.82,9.18.1,18.42.15,27.66.15s18.49,0,27.67-.15c3.69,10.6,7.6,21.19,11.68,31.59a7.59,7.59,0,0,0,5.2,4.55A15.76,15.76,0,0,1,125,150.67Zm20.36-13.85a15.09,15.09,0,0,1-3.46,1.26,4,4,0,0,1-4.59-2.46c-5.14-13.11-10-26.53-14.51-39.88a4,4,0,0,1,1.93-4.84,15.94,15.94,0,0,1,3.46-1.26,3.75,3.75,0,0,1,.87-.1,4,4,0,0,1,3.72,2.56c5.15,13.11,10,26.53,14.52,39.89a4,4,0,0,1-1.94,4.83ZM141.48,105l2.35,0h.1c-.09,1.64-.21,3.56-.37,5.69-.68-1.89-1.38-3.77-2.08-5.65Zm9-9.1a7,7,0,0,1-6.68,5.57h-.06l-3.58.06q-2-5.4-4.12-10.73a7.52,7.52,0,0,0-8.64-4.59,19.2,19.2,0,0,0-4.24,1.54,7.51,7.51,0,0,0-3.67,9.07c.55,1.66,1.12,3.32,1.69,5-17.58.18-35.35.18-52.93,0,.57-1.66,1.14-3.32,1.69-5a7.5,7.5,0,0,0-3.67-9.06,19,19,0,0,0-4.24-1.55,7.53,7.53,0,0,0-8.64,4.59q-2.08,5.34-4.12,10.73l-3.58-.06h-.06a6.73,6.73,0,0,1-1.55-.21A7,7,0,0,1,39,95.93a17.6,17.6,0,0,1,0-7,7,7,0,0,1,6.68-5.57c32.57-.62,65.6-.62,98.17,0a7,7,0,0,1,6.68,5.57,17.6,17.6,0,0,1,0,7Z" transform="translate(-2.33 -2.48)"/><path class="cls-2" d="M71.65,111.44h-.12a7.34,7.34,0,0,0-7.34,7.18c-.15,4.74-.15,9.54,0,14.28a7.34,7.34,0,0,0,7.34,7.18h.12A7.35,7.35,0,0,0,79,132.9c.14-4.74.14-9.54,0-14.28a7.35,7.35,0,0,0-7.35-7.18Zm3.86,21.35a3.93,3.93,0,0,1-3.87,3.8h-.1a3.92,3.92,0,0,1-3.86-3.8c-.14-4.66-.14-9.4,0-14.06a3.92,3.92,0,0,1,3.86-3.8h.1a3.94,3.94,0,0,1,3.87,3.8c.14,4.66.14,9.4,0,14.06Z" transform="translate(-2.33 -2.48)"/><path class="cls-2" d="M94.79,111.44h-.11a7.35,7.35,0,0,0-7.35,7.18c-.14,4.74-.14,9.54,0,14.28a7.35,7.35,0,0,0,7.35,7.18h.11a7.35,7.35,0,0,0,7.35-7.18c.14-4.74.14-9.54,0-14.28A7.35,7.35,0,0,0,94.79,111.44Zm3.86,21.35a3.92,3.92,0,0,1-3.86,3.8h-.11a3.92,3.92,0,0,1-3.86-3.8c-.14-4.66-.14-9.4,0-14.06a3.93,3.93,0,0,1,3.87-3.8h.1a3.93,3.93,0,0,1,3.86,3.8C98.79,123.39,98.79,128.13,98.65,132.79Z" transform="translate(-2.33 -2.48)"/><path class="cls-2" d="M117.94,111.44h-.12a7.35,7.35,0,0,0-7.35,7.18c-.14,4.74-.14,9.54,0,14.28a7.35,7.35,0,0,0,7.35,7.18h.12a7.34,7.34,0,0,0,7.34-7.18c.15-4.74.15-9.54,0-14.28A7.34,7.34,0,0,0,117.94,111.44Zm3.85,21.35a3.92,3.92,0,0,1-3.86,3.8h-.1a3.93,3.93,0,0,1-3.87-3.8c-.14-4.66-.14-9.4,0-14.06a3.94,3.94,0,0,1,3.87-3.8h.1a3.92,3.92,0,0,1,3.86,3.8C121.93,123.39,121.93,128.13,121.79,132.79Z" transform="translate(-2.33 -2.48)"/></svg>