<?xml version="1.0" encoding="utf-8"?>
<!-- Generator: Adobe Illustrator 24.2.1, SVG Export Plug-In . SVG Version: 6.00 Build 0)  -->
<svg version="1.1" id="Layer_1" xmlns="http://www.w3.org/2000/svg" xmlns:xlink="http://www.w3.org/1999/xlink" x="0px" y="0px"
	 viewBox="0 0 190 250.84" style="enable-background:new 0 0 190 250.84;" xml:space="preserve">
<style type="text/css">
	.st0{fill:#970050;}
	.st1{fill:#F2F2F2;}
</style>
<path class="st0" d="M187.14,94.89c0-51.04-41.37-92.41-92.41-92.41C43.7,2.48,2.33,43.86,2.33,94.89
	c0,36.04,20.64,67.26,50.73,82.49l41.67,72.18l41.67-72.18C166.51,162.15,187.14,130.93,187.14,94.89z"/>
<g>
	<path class="st1" d="M120.72,56.07c-1.04,1.04-1.61,2.41-1.61,3.88s0.57,2.84,1.61,3.88l12.69,12.69c1.04,1.04,2.41,1.61,3.88,1.61
		c1.47,0,2.84-0.57,3.88-1.61c1.04-1.04,1.61-2.41,1.61-3.88c0-1.47-0.57-2.84-1.61-3.88l-12.69-12.69
		C126.34,53.93,122.86,53.94,120.72,56.07z M138.7,71.23c0.38,0.38,0.58,0.88,0.58,1.41s-0.21,1.03-0.58,1.41
		c-0.38,0.38-0.88,0.58-1.41,0.58s-1.03-0.21-1.41-0.58l-12.69-12.69c-0.38-0.38-0.58-0.88-0.58-1.41c0-0.53,0.21-1.03,0.58-1.41
		c0.39-0.39,0.9-0.58,1.41-0.58c0.51,0,1.02,0.19,1.41,0.58L138.7,71.23z"/>
	<path class="st1" d="M153.92,88.23c-0.73-3.61-3.33-6.5-6.67-7.73c8.26-13.78,9.41-26.69,2.8-33.3c-2.9-2.9-7.1-4.38-12.15-4.29
		c-0.96,0.02-1.73,0.81-1.71,1.78c0.02,0.95,0.8,1.71,1.75,1.71c0.01,0,0.02,0,0.03,0c4.13-0.08,7.37,1.02,9.62,3.27
		c3.47,3.47,3.56,8.74,3.03,12.55c-0.75,5.39-3.19,11.47-7.06,17.63c-10.07-0.19-20.19-0.32-30.32-0.4
		c-0.07-5.95-0.43-11.97-1.1-17.92c-0.09-0.81-0.74-1.45-1.55-1.54c-0.52-0.06-1.04-0.11-1.56-0.16
		c7.37-6.23,15.25-10.63,22.51-12.5c0.93-0.24,1.5-1.19,1.25-2.13c-0.24-0.93-1.19-1.5-2.13-1.25c-2.78,0.72-5.64,1.78-8.52,3.14
		c0.56-2.44,0.83-5.37-0.24-7.55c-0.65-1.32-1.71-2.21-3.09-2.59c-2.04-0.56-5.21-0.27-8.73,4.36c-0.17,0.22-0.33,0.45-0.49,0.67
		c-0.02-0.07-0.04-0.13-0.06-0.2c-0.69-2.3-2.5-6.16-6.84-6.16c-1.51,0-2.82,0.6-3.8,1.74c-1.28,1.48-1.84,3.79-2.04,6.09
		c-1.53-2.01-3.38-3.63-5.38-3.63c-1.3,0-2.49,0.66-3.34,1.87c-2.25,3.17-2.28,10.04-0.19,17.24c-0.52,0.01-1.05,0.02-1.57,0.03
		c-3.42-3.99-7.56-6.74-9.37-7.84v-3.83c0.82-0.14,1.44-0.86,1.44-1.72v-4.93c0-2.66-2.16-4.82-4.82-4.82H62.75
		c-2.66,0-4.82,2.16-4.82,4.82v4.93c0,0.86,0.62,1.57,1.44,1.72l0,3.83c-2.36,1.43-8.66,5.65-12.18,11.78
		c-0.72,1.24-1.05,2.68-0.96,4.15c0.17,2.68,0.59,7.9,1.5,12.78c-0.72,0.01-1.43,0.02-2.15,0.04c-4.85,0.09-9.07,3.61-10.03,8.37
		c-0.57,2.79-0.57,5.61,0,8.4c0.71,3.5,3.18,6.38,6.45,7.65c0.19,3.55,0.52,8.61,1.06,14.36c-1.44,4.08-2.85,8.17-4.22,12.24
		c-1.18,3.51,0.4,7.41,3.67,9.07c1.25,0.63,2.55,1.12,3.89,1.46c1.25,3.55,3.49,6.62,6.52,8.91c3.34,2.53,7.33,3.87,11.53,3.87
		h60.57c4.2,0,8.18-1.34,11.53-3.87c3.03-2.29,5.26-5.35,6.52-8.91c1.35-0.34,2.66-0.83,3.9-1.46c3.27-1.65,4.85-5.55,3.67-9.07
		c-1.37-4.08-2.78-8.16-4.22-12.24c0.54-5.75,0.87-10.8,1.06-14.36c3.27-1.28,5.75-4.16,6.45-7.65
		C154.49,93.84,154.49,91.01,153.92,88.23L153.92,88.23z M108.81,63.32c0.56,5.36,0.87,10.77,0.93,16.12
		c-12.95-0.08-25.93-0.05-38.87,0.07c0.06-5.37,0.37-10.8,0.93-16.18C84.09,62.09,96.52,62.09,108.81,63.32L108.81,63.32z
		 M90.96,43.7c0.13-0.18,0.32-0.39,0.49-0.39c1.26,0,3.89,3.59,5.77,7.85c0.31,0.75,1.1,1.2,1.91,1.06
		c0.84-0.15,1.45-0.87,1.45-1.72c0-0.11-0.01-0.21-0.03-0.32c-0.87-5.9,0.1-9.54,0.97-10.55c0.32-0.37,0.66-0.53,1.16-0.53
		c4.03,0,4.16,8.01,4.16,8.09c0,0.83,0.58,1.54,1.39,1.71c0.81,0.17,1.62-0.25,1.96-1c1.25-2.82,4.77-8.4,7.68-7.59
		c0.41,0.12,0.68,0.34,0.89,0.77c0.74,1.51,0.35,4.86-0.96,8.28c-4.62,2.66-9.23,6.05-13.59,10.05c-4.2-0.31-8.42-0.48-12.63-0.5
		C89.13,51.29,89.7,45.48,90.96,43.7L90.96,43.7z M73.49,50.37H62.87l0-3.06h10.63L73.49,50.37L73.49,50.37z M62.75,39.31h10.86
		c0.73,0,1.33,0.59,1.33,1.33v3.18H61.42v-3.18C61.42,39.9,62.02,39.31,62.75,39.31z M51.17,79.23c-0.89-4.7-1.29-9.79-1.46-12.4
		c-0.05-0.78,0.13-1.54,0.5-2.19c3.33-5.79,9.77-9.83,11.37-10.78h13.19c1.02,0.6,4.02,2.47,6.92,5.25
		c-3.9,0.18-7.78,0.47-11.66,0.89c-0.81,0.09-1.46,0.73-1.55,1.54c-0.67,5.98-1.04,12.03-1.1,18c-5.36,0.06-10.72,0.13-16.06,0.22
		C51.26,79.59,51.21,79.41,51.17,79.23L51.17,79.23z M45.54,104.99c0.01,0,0.03,0,0.04,0l0.06,0c0.78,0.01,1.57,0.03,2.35,0.04
		c-0.7,1.88-1.4,3.77-2.08,5.65C45.75,108.55,45.63,106.64,45.54,104.99z M125.02,150.67H64.45c-6.17,0-11.75-3.7-14.26-9.22
		c2.29-0.57,4.28-2.22,5.2-4.55c1.01-2.57,1.92-4.93,2.8-7.23c0.34-0.9-0.11-1.91-1.01-2.25c-0.9-0.34-1.91,0.11-2.25,1.01
		c-0.87,2.29-1.78,4.64-2.78,7.19c-0.72,1.85-2.7,2.9-4.59,2.46c-1.19-0.28-2.36-0.7-3.46-1.26c-1.74-0.88-2.57-2.96-1.94-4.84
		c4.48-13.32,9.36-26.74,14.52-39.88c0.72-1.85,2.7-2.9,4.59-2.46c1.2,0.28,2.37,0.71,3.46,1.26c1.74,0.88,2.57,2.96,1.94,4.84
		c-2.93,8.72-6.05,17.52-9.27,26.17c-0.34,0.9,0.12,1.91,1.03,2.25c0.9,0.34,1.91-0.12,2.25-1.03c2.2-5.89,4.34-11.86,6.42-17.82
		c9.18,0.1,18.42,0.15,27.66,0.15c9.24,0,18.48-0.05,27.67-0.15c3.69,10.6,7.6,21.19,11.68,31.59c0.91,2.33,2.9,3.98,5.2,4.55
		C136.77,146.97,131.19,150.67,125.02,150.67L125.02,150.67z M145.38,136.82c-1.1,0.55-2.26,0.98-3.46,1.26
		c-1.89,0.44-3.87-0.61-4.59-2.46c-5.14-13.11-10.03-26.53-14.52-39.88c-0.63-1.88,0.2-3.96,1.94-4.84c1.1-0.55,2.26-0.98,3.46-1.26
		c0.29-0.07,0.58-0.1,0.87-0.1c1.6,0,3.11,1,3.72,2.56c5.14,13.11,10.03,26.53,14.52,39.88
		C147.95,133.86,147.12,135.94,145.38,136.82L145.38,136.82z M141.48,105.03c0.78-0.01,1.56-0.03,2.35-0.04l0.06,0
		c0.01,0,0.03,0,0.04,0c-0.09,1.65-0.21,3.57-0.37,5.69C142.88,108.79,142.18,106.91,141.48,105.03L141.48,105.03z M150.5,95.93
		c-0.53,2.61-2.54,4.72-5.14,5.36c-0.49,0.12-1.01,0.19-1.53,0.2l-0.06,0c-1.19,0.02-2.39,0.04-3.58,0.06
		c-1.36-3.6-2.73-7.18-4.13-10.73c-1.35-3.45-5.07-5.42-8.64-4.58c-1.47,0.34-2.89,0.86-4.24,1.54c-3.27,1.65-4.85,5.55-3.67,9.07
		c0.56,1.66,1.12,3.32,1.69,4.98c-17.57,0.18-35.35,0.18-52.92,0c0.57-1.66,1.13-3.32,1.69-4.98c1.18-3.51-0.4-7.41-3.67-9.07
		c-1.34-0.68-2.77-1.2-4.24-1.54c-3.57-0.84-7.28,1.14-8.64,4.59c-1.4,3.56-2.77,7.14-4.13,10.73c-1.19-0.02-2.39-0.04-3.58-0.06
		l-0.05,0c-0.53-0.01-1.05-0.08-1.55-0.21c-2.59-0.64-4.6-2.75-5.13-5.36c-0.47-2.33-0.47-4.68,0-7.01
		c0.64-3.16,3.45-5.51,6.68-5.57c32.57-0.63,65.6-0.63,98.17,0c3.23,0.06,6.04,2.4,6.68,5.57C150.97,91.24,150.97,93.6,150.5,95.93
		L150.5,95.93z"/>
	<path class="st1" d="M71.65,111.44h-0.12c-4,0.01-7.23,3.17-7.35,7.19c-0.14,4.74-0.14,9.54,0,14.27c0.12,4.02,3.35,7.18,7.35,7.19
		h0.12c4-0.01,7.23-3.17,7.35-7.19c0.14-4.74,0.14-9.54,0-14.27C78.88,114.6,75.65,111.45,71.65,111.44L71.65,111.44z M75.51,132.79
		c-0.06,2.09-1.8,3.79-3.86,3.8h-0.1c-2.07,0-3.8-1.71-3.86-3.8c-0.14-4.67-0.14-9.4,0-14.06c0.06-2.09,1.8-3.79,3.87-3.8h0.1h0
		c2.07,0,3.8,1.71,3.86,3.8C75.65,123.39,75.65,128.13,75.51,132.79L75.51,132.79z"/>
	<path class="st1" d="M94.79,111.44h-0.12c-4,0.01-7.23,3.17-7.35,7.19c-0.14,4.74-0.14,9.54,0,14.27c0.12,4.02,3.35,7.18,7.35,7.19
		h0.12c4-0.01,7.23-3.17,7.35-7.19c0.14-4.74,0.14-9.54,0-14.27C102.02,114.6,98.79,111.45,94.79,111.44z M98.65,132.79
		c-0.06,2.09-1.8,3.79-3.86,3.8h-0.1c-2.07,0-3.8-1.71-3.86-3.8c-0.14-4.67-0.14-9.4,0-14.06c0.06-2.09,1.8-3.79,3.87-3.8h0.1h0
		c2.07,0,3.8,1.71,3.86,3.8C98.79,123.39,98.79,128.13,98.65,132.79z"/>
	<path class="st1" d="M117.94,111.44h-0.12c-4,0.01-7.23,3.17-7.35,7.19c-0.14,4.74-0.14,9.54,0,14.27
		c0.12,4.02,3.35,7.18,7.35,7.19h0.12c4-0.01,7.23-3.17,7.35-7.19c0.14-4.74,0.14-9.54,0-14.27
		C125.16,114.6,121.94,111.45,117.94,111.44z M121.79,132.79c-0.06,2.09-1.8,3.79-3.86,3.8h-0.1c-2.07,0-3.8-1.71-3.86-3.8
		c-0.14-4.67-0.14-9.4,0-14.06c0.06-2.09,1.8-3.79,3.87-3.8h0.1h0c2.07,0,3.8,1.71,3.86,3.8
		C121.93,123.39,121.93,128.13,121.79,132.79z"/>
</g>
</svg>
