<svg id="Layer_1" data-name="Layer 1" xmlns="http://www.w3.org/2000/svg" viewBox="0 0 197.1 28.94"><defs><style>.cls-1{fill:#f2f2f2;}</style></defs><path class="cls-1" d="M5.57,16.72V28.08H0V0H15V5.57H5.57v5.62H15v5.53Z"/><path class="cls-1" d="M32.22,19.59l7.41,8.49H32.22l-6.36-7.26v7.26H20.29V0h7.09a10.39,10.39,0,0,1,4.84,19.59Zm-4.84-14H25.86v9.68h1.52a4.84,4.84,0,0,0,0-9.68Z"/><path class="cls-1" d="M51.72,28.65a8.8,8.8,0,0,1-8.81-8.81V0h5.58V19.84a3.25,3.25,0,0,0,3.23,3.28A3.29,3.29,0,0,0,55,19.84V0h5.54V19.84A8.81,8.81,0,0,1,51.72,28.65Z"/><path class="cls-1" d="M67.09,28.08V0h5.58V28.08Z"/><path class="cls-1" d="M87,5.57V28.08H81.44V5.57H76.77V0h15V5.57Z"/><path class="cls-1" d="M102.92,28.08h-7.1V0h7.1a14,14,0,1,1,0,28.08Zm0-22.51H101.4V22.5h1.52a8.47,8.47,0,1,0,0-16.93Z"/><path class="cls-1" d="M121.69,28.08V0h5.57V28.08Z"/><path class="cls-1" d="M146.28,0h6l-11.1,28.94L130,0h6l5.17,13.61Z"/><path class="cls-1" d="M167.47,0h6L162.34,28.94,151.2,0h6l5.16,13.61Z"/><path class="cls-1" d="M187.51,15.86V28.08H182V15.86L172.39,0h6.55l5.82,9.67L190.54,0h6.56Z"/></svg>